<svg xmlns="http://www.w3.org/2000/svg" width="24" height="24"><path fill="#F37D79" stroke="#FFF" d="M22.94 19.436a11.02 11.02 0 00-5.684-8.305v-.087c0-3.396-1.529-6.554-4.194-8.665a1.739 1.739 0 00-2.167 0A10.995 10.995 0 006.7 11.131a11.02 11.02 0 00-5.683 8.301 1.735 1.735 0 00.141.978 1.73 1.73 0 00.953.9c1.303.52 2.681.783 4.095.783 2.056 0 4.042-.56 5.771-1.624a10.976 10.976 0 005.772 1.624c1.42 0 2.803-.266 4.11-.79a1.74 1.74 0 001.08-1.867zm-16.733-.834c-.476 0-.948-.044-1.41-.13a7.617 7.617 0 012.576-3.625 11.04 11.04 0 001.794 3.157 7.463 7.463 0 01-2.96.598zm5.77-2.675a7.48 7.48 0 01-1.41-2.516 7.61 7.61 0 012.822 0 7.504 7.504 0 01-1.411 2.516zm.002-6.139c-.571 0-1.142.044-1.704.132a7.498 7.498 0 011.703-3.758 7.519 7.519 0 011.704 3.757 11.089 11.089 0 00-1.703-.13zm5.77 8.814a7.412 7.412 0 01-2.959-.597 11.044 11.044 0 001.796-3.157 7.618 7.618 0 012.573 3.623 7.61 7.61 0 01-1.41.131z"/></svg>