<svg xmlns="http://www.w3.org/2000/svg" width="24" height="24"><g fill="#F37D79" fill-rule="evenodd"><path d="M11.143 18.454v5.162h1.714v-5.162c-.284.009-.567.02-.857.02-.29 0-.573-.011-.857-.02zM.947 21.518l1.534.767 2.409-4.819a14.315 14.315 0 01-1.611-.611L.947 21.518zm18.163-4.052l2.41 4.819 1.533-.767-2.332-4.663c-.493.224-1.032.428-1.611.611z" opacity=".6"/><path d="M18.82 7.53c-.357-3.45-3.28-6.146-6.82-6.146-3.54 0-6.463 2.697-6.82 6.146C2.052 8.458 0 10.005 0 11.759c0 2.84 5.373 5.143 12 5.143s12-2.303 12-5.143c0-1.754-2.052-3.301-5.18-4.23zM4.714 13.473a1.286 1.286 0 11.001-2.572 1.286 1.286 0 010 2.572zm4.961-5.52c.156-.255.698-.209 1.209.104.51.313.799.773.642 1.03-.156.255-.698.208-1.209-.104-.51-.313-.798-.774-.642-1.03zM12 15.187a1.286 1.286 0 110-2.572 1.286 1.286 0 010 2.572zm1.677-6.205c-.51.313-1.052.359-1.208.103-.156-.255.131-.716.642-1.029.51-.313 1.052-.36 1.208-.104.157.257-.13.718-.642 1.03zm3.466-.19c-.633.452-1.582.812-2.712 1.028.311-.645.525-1.372.528-2.138C14.967 5.3 13.034 4.706 12 4.706h-.004c-1.034 0-2.967.593-2.96 2.977.003.766.217 1.49.528 2.136-1.128-.217-2.075-.576-2.707-1.027v-.55A5.148 5.148 0 0112 3.097a5.148 5.148 0 015.143 5.143v.551zm2.143 4.681a1.286 1.286 0 110-2.572 1.286 1.286 0 010 2.572z"/></g></svg>