<svg xmlns="http://www.w3.org/2000/svg" width="24" height="24"><g fill="none" fill-rule="evenodd"><path fill="#F37D79" fill-rule="nonzero" d="M17.563 5.063a2.58 2.58 0 00-1.375.343l-.375.282-.5-.188c-1.801-.8-3.805.79-3.407 2.688l.094.406-.313.406c-1.398 1.5-.476 3.895 1.626 4.094h.5l.28.406c1 1.8 3.606 1.613 4.407-.188l.188-.5.5-.124c1.8-.301 2.5-2.793 1-4.094l-.375-.281.093-.5a2.496 2.496 0 00-2.343-2.75zm-1.657 2.625c.375-.012.758.085 1.094.312.898.602 1.195 1.79.594 2.688-.602 1-1.79 1.226-2.688.624-.898-.601-1.195-1.82-.594-2.718a1.992 1.992 0 011.594-.906zM22 13.905C14.602 15.707 15.594 18.2 13.094 21c.5-1 .906-2.012 1.406-2.813.398-.898.793-1.574 1.094-2.375a3.072 3.072 0 01-1.781-.906c-.301.602-.602 1.293-1 2.094-.102-.602-.118-1.313-.22-1.813-.398.301-.804.524-1.405.626-.102.3-.301.582-.5.78.101 1.2.218 2.509.218 3.907-.5-.898-.918-2-1.219-3-.5.3-1.085.406-1.687.406-.398 0-.79-.117-1.188-.218C8.114 20.188 9.7 22 12 22c6 0 7.5-5.395 10-8.094z"/><path fill="#F8B1AF" d="M12.344 2.063a2.516 2.516 0 00-1.25.343l-.406.281-.5-.187c-1.7-1-3.68.695-3.282 2.594l.094.5L6.687 6c-1.398 1.5-.5 3.895 1.5 4.094h.5l.313.5c.3.5.688.8 1.188 1-.301-1-.102-2.102.5-3-.301 0-.481-.082-.782-.281-.898-.602-1.195-1.82-.594-2.72C9.915 4.696 11.102 4.399 12 5c.602-.5 1.387-.813 2.188-.813.199 0 .425.024.624.125-.074-1.273-1.226-2.242-2.468-2.25zM2 2.906c.602.7 1.188 2.406 1.688 4.406a4.444 4.444 0 011.624-1c.102-.3.301-.511.5-.812C4.813 4.398 3.7 3.508 2 2.906z"/><path fill="#F8B1AF" d="M5 7.5c-.8.5-1.395 1.492-1.094 2.594l.094.5-.313.406c-1.398 1.5-.476 3.895 1.626 4.094h.5l.187.5c1 1.8 3.605 1.613 4.406-.188l.188-.5.5-.094c.601-.101 1.105-.406 1.406-.906-.7-.199-1.29-.594-1.688-1.094-.398 0-.699-.117-1-.218 0 .101-.124.117-.124.219-.602.898-1.79 1.195-2.688.593-.898-.601-1.195-1.82-.594-2.719 0-.101.094-.093.094-.093C6 10.195 5.512 9.699 5.312 9 5.114 8.398 5 8 5 7.5z"/></g></svg>