<svg xmlns="http://www.w3.org/2000/svg" width="24" height="24"><g fill="none"><path fill="#F8B1AF" d="M7.348 19.835h.236l.137-.32-.133-1.062-1.893-.27-1.24 1.24.814 1.898z"/><path fill="#F37D79" d="M14.063 16.68V8.743a4.32 4.32 0 00-1.972-.478 4.604 4.604 0 00-1.973.448v8.568l3.945-.601zm-2.959-9.655h1.973V1.653h-1.973z"/><path d="M10.787 0h2.607c.37 0 .67.251.67.561v.53c0 .31-.3.562-.67.562h-2.607c-.37 0-.67-.251-.67-.561v-.53c0-.31.3-.562.67-.562m1.278 6.612h.039a6.602 6.602 0 013.217.838c.529.302.602.93.135 1.296a1.12 1.12 0 01-1.22.082 4.285 4.285 0 00-2.145-.563c-.824.007-1.59.202-2.236.576-.377.218-.89.17-1.22-.096l-.001-.001c-.44-.355-.404-.97.099-1.26a6.704 6.704 0 013.332-.872" fill="#F37D79"/><path fill="#F8B1AF" d="M11.983 17.356a.413.413 0 01-.413-.413v-6.199a.413.413 0 01.826 0v6.199a.413.413 0 01-.413.413m-7.941 6.612v-2.066l2.893-2.067h2.892l1.653 1.653v2.49z"/><path fill="#F8B1AF" d="M18.092 20.249l-2.48-.414-4.132 1.653v2.49l8.265-.01z"/><path fill="#F8B1AF" d="M15.512 19.876l-.726-1.694-.826-1.653-4.546.827-2.066-.414v2.893h2.48l1.652 1.653z"/><path fill="#F8B1AF" d="M16.852 16.943l-2.507.358.441.881.718 1.675.035.008.074-.03 1.653.276.826-1.929z"/></g></svg>