<svg xmlns="http://www.w3.org/2000/svg" width="24" height="24"><g fill="none"><path fill="#F37D79" d="M10.087 7.423s1.386-.339 1.632-.43c.216-.093.801-.155.955-.093.154.061.678.123.678.123L15.2 2.187l-2.772 2.834.523-1.232-2.864 3.634z"/><path fill="#F37D79" d="M17.418 11.274c.4-.924.43-2.095.43-2.588 0-.493 1.418-6.099 1.418-6.099L16.894 5.39l.092-.677-2.125 1.817-1.386.893c-.339-.154-.709-.246-1.078-.184-1.047.184-2.865.462-3.358 1.324-.37.647-.831 1.57-.924 2.28L6.36 12.104a.948.948 0 00-.4.093.657.657 0 00-.34.43h-.03s-.309 1.572.308 2.126c.646.555 2.248 1.51 2.587 1.448.339-.062.585.246.585.246v-.43l.277.122v-.462l2.465-.893c.646.123 1.416 0 2.248-.616a1.32 1.32 0 00.37-.339s.8-.493 1.57-1.109c0 0 .956-1.57.309-2.618l-.647-1.047s1.663.831 1.417 2.68c.185-.185.277-.34.339-.462zm-9.18 2.495h-.4l.308-.185h.062c.061 0 .03.185.03.185zm-.708-.493l-.185.462s-.154-1.11 1.017-.955l.123.092c0 .031-.77-.061-.955.4z"/><path fill="#F37D79" d="M22.13 12.32l-.77-.708c-.4-.37-.831-.492-1.17-.523l-.093-.277c.586-.74 1.787-.34 1.787-.34l-.986-.4a1.936 1.936 0 00-1.294-.092l-.184-.185c.493-1.17 2.094-.924 2.094-.924l-1.232-.277c-1.232-.277-2.125.493-2.125.493s0 .061.03.215c.124.062.278.154.463.277l.554.555.062.062c.154.215.308.492.4.8 0 .031.03.062.03.124.032.184.063.37.093.585 0 .185 0 .37-.03.585l-.093.554c-.092.37-.216.77-.431 1.202-.123.246-.247.523-.4.831-.062.093-.124.216-.185.308-.185.308-.37.616-.616.955-.185.247-.37.493-.555.77-.185.247-.4.493-.616.74-.062.092-.154.154-.216.246-.154.185-.308.339-.462.524-.03.03-.061.092-.123.123-.123.123-.215.246-.339.37-.154.184-.338.37-.523.523a1.993 1.993 0 00-.247.277l-.462.462-.215.216c-.031-.03-.031-.062-.062-.123.093-.093.154-.185.247-.277.123-.124.246-.278.37-.432.092-.123.215-.246.307-.37.123-.153.247-.276.37-.43.123-.155.277-.34.4-.493l.031-.031c.154-.185.277-.37.431-.555.154-.215.34-.43.493-.677.062-.093.123-.154.154-.247 1.817-2.587 3.265-5.698 1.14-6.992-.062 1.048-.616 3.235-3.666 5.298-4.22 2.865-7.423 1.633-7.423 1.633s-1.787-.74-2.095-1.11l-.308-.369s-.862 2.28 0 4.651c.093.278.185.493.278.709.554 1.478 1.94 2.464 3.511 2.464 1.51 0 3.573-.493 5.883-2.31.031.185.031.308.031.308l.03-.37.648-.554c.03.185.03.339.03.339l.031-.432c.247-.246.524-.492.77-.739.093.277.093.555.093.555l.061-.709c.154-.185.34-.339.493-.554.34.277.462.8.462.8l-.092-.77a5.054 5.054 0 00-.093-.338c.124-.124.216-.247.34-.37.03-.03.06-.062.092-.092.924-.185 1.601.831 1.601.831l-.523-.924a2.12 2.12 0 00-.524-.616c.247-.308.462-.616.647-.893.924.062 1.294 1.201 1.294 1.201l-.278-1.016a2.24 2.24 0 00-.554-.924c.092-.124.154-.278.246-.4.925-.216 1.633.83 1.633.83l-.524-.923a1.99 1.99 0 00-.677-.74c.123-.307.246-.585.339-.831.954-.277 1.694.832 1.694.832l-.524-.924a1.871 1.871 0 00-.924-.863c.03-.123.03-.216.03-.339.925-.585 1.941.216 1.941.216zm-7.7 7.363c0 .03 0 .03.03.061-.03-.03-.03-.061-.03-.061zm-.154-.34s0 .032 0 0c0 .032 0 0 0 0zm.061.155c0 .03.031.03.031.061 0-.03 0-.061-.03-.061z"/><path fill="#F8B1AF" d="M22.561 3.943c0-.031.031-.031.031-.062l-.215-.216c-.247-.277-.432-.4-.432-.4A12.451 12.451 0 0013.69.154C6.76.154 1.123 5.76 1.123 12.721c0 3.512 1.448 6.684 3.758 8.964-.77-1.54-1.786-4.96-.246-7.424l.061-.092.247-1.787.092-.646.709-.493h.492l1.017-.678c.4-1.448 1.971-3.203 1.971-3.203l4.066-4.867v.893l1.787-1.786.77-.247.277.678-1.448 3.789 2.68-2.803v1.047l2.248-2.372.155.462-1.294 6.037.03-.03s1.972-1.602 3.296-3.235c.74.462 1.233 1.787 1.233 1.787.215-1.355-.124-2.249-.463-2.772z"/></g></svg>