<svg xmlns="http://www.w3.org/2000/svg" width="24" height="24"><g fill="none"><path fill="#F8B1AF" d="M13.234 17.474c9.924-1.213 9.51-6.588 6.643-9.84 0 0 2.399 3.555-7.222 5.126-9.62 1.572-10.558 3.501-10.062 6.175 0 0 .304 1.461 2.206 1.82 0 0-1.489-2.068 8.435-3.28zM4.881 8.295s-3.17.661-4.796 2.536l1.847.854S.912 12.981.305 15.021c0 0 1.792-2.233 4.604-2.702l-.028-4.024zm17.146 9.4l.497-2.15c-1.02 1.157-2.73 1.819-2.73 1.819.056 2.564-1.295 4.218-1.295 4.218 3.832-1.296 5.458-3.501 5.458-3.501l-1.93-.386z"/><path fill="#F37D79" d="M18.968 16.917c-1.314.731-3.156 1.3-5.651 1.605-2.848.348-4.756.766-6.03 1.186-.27.09-.513.18-.73.268.04.086.081.173.125.259.821 1.611 2.447 3.221 5.67 3.221h.11c6.45 0 6.506-6.45 6.506-6.45v-.09zm-6.258-5.094c2.653-.433 4.392-1.017 5.52-1.637 0 0 .586-.37.738-.642V4.105c-5.955 0-6.561-3.97-6.561-3.97s-.607 3.97-6.56 3.97v9.372c1.399-.543 3.347-1.044 6.029-1.513.27-.047.548-.094.834-.14z"/></g></svg>