<svg xmlns="http://www.w3.org/2000/svg" width="24" height="24"><g fill="none"><path fill="#F8B1AF" d="M14.516 6.742l-1.667 1.821a6.678 6.678 0 01-1.013 13.277 6.676 6.676 0 01-1.013-13.277l-1.668-1.82A8.836 8.836 0 0011.835 24a8.836 8.836 0 002.681-17.258z"/><path fill="#F37D79" d="M17.032 2.39L15.125.478l-.872 1.914zm-6.706.636l1.066 3.312.432 1.34.431-1.34 1.067-3.312zm4.21-2.79h-2.309l1.46 1.864zm2.521 2.79H13.99l-1.085 3.368-.58 1.799 1.5-1.638zM11.42.236H9.134l.83 1.86zM8.545.478L6.64 2.39h2.759zm4.561 1.912L11.824.753l-1.282 1.639zm-1.797 5.762l-.566-1.755-1.086-3.37H6.614l3.232 3.528z"/></g></svg>