<svg xmlns="http://www.w3.org/2000/svg" width="24" height="24"><g fill="none" fill-rule="evenodd"><path fill="#F8B1AF" d="M18.446 15.77c-1.362 0-2.446 1.062-2.446 2.398s1.084 2.4 2.446 2.4 2.446-1.064 2.446-2.4c0-1.336-1.084-2.399-2.446-2.399z"/><path fill="#F37D79" d="M21.858 4.656c-.418.01-.892.084-1.431.209-2.338.729-4.06 1.378-5.975 2.298a6.076 6.076 0 00-2.505-.535c-3.314 0-6 2.635-6 5.885 0 1.3.43 2.503 1.159 3.477a55.868 55.868 0 005.3-2.8 56.782 56.782 0 004.918-3.285 5.925 5.925 0 00-1.483-1.864c2.001-.94 3.777-1.6 5.106-1.906.686-.158 1.255-.23 1.644-.2.133.01.202.043.282.066a2.674 2.674 0 01-.341.694c-.387.597-1.065 1.355-1.96 2.182-1.79 1.653-4.467 3.615-7.594 5.483-3.128 1.868-6.117 3.286-8.395 4.063-1.14.388-2.103.612-2.796.66-.33.023-.59.01-.758-.034.018-.077.024-.152.077-.267.158-.35.477-.811.929-1.33.73-.835 1.813-1.823 3.144-2.875a6.739 6.739 0 01-.298-1.496c-1.546 1.187-2.802 2.316-3.648 3.285-.474.544-.822 1.026-1.03 1.488-.105.231-.174.46-.197.719-.023.259.012.607.205.953.267.48.639.67.954.76.316.091.656.111 1.049.084.784-.054 1.774-.305 2.94-.702 1.254-.428 2.707-1.048 4.27-1.814a6.09 6.09 0 002.523.543 6.07 6.07 0 002.752-.652c.173-1.503 1.322-2.728 2.813-3.025.254-.616.4-1.283.426-1.981 1.315-.953 2.467-1.88 3.392-2.734.916-.846 1.616-1.606 2.054-2.282.219-.338.37-.65.452-.978a1.639 1.639 0 00-.154-1.245 1.55 1.55 0 00-.707-.66 2.006 2.006 0 00-.716-.176 3.878 3.878 0 00-.4-.008z"/><path fill="#F8B1AF" d="M3.91 4C2.854 4 2 4.838 2 5.872c0 1.034.855 1.873 1.91 1.873 1.053 0 1.908-.839 1.908-1.873S4.963 4 3.91 4zm-2.668 6.538A1.23 1.23 0 000 11.757a1.23 1.23 0 001.242 1.219 1.23 1.23 0 001.243-1.219 1.23 1.23 0 00-1.243-1.219z" opacity=".8"/></g></svg>