<svg xmlns="http://www.w3.org/2000/svg" width="24" height="24"><g fill="none" fill-rule="evenodd"><path fill="#F8B1AF" d="M20.875 22.875H7.75a2.628 2.628 0 01-2.625-2.625 2.628 2.628 0 012.625-2.625c.423 0 .84.11 1.217.308a2.62 2.62 0 011.408 2.317h.75a3.37 3.37 0 00-1.447-2.765 2.619 2.619 0 014.008-1.68l.429.28.138-.493a3.383 3.383 0 013.247-2.467 3.38 3.38 0 013.358 3.703c-.006.064-.018.126-.027.188-.007.047-.012.094-.022.14a3.38 3.38 0 01-3.309 2.719v.75c1.86 0 3.43-1.24 3.942-2.936A2.612 2.612 0 0123.5 20.25a2.628 2.628 0 01-2.625 2.625z"/><path fill="#F37D79" d="M21.012 11.302a.13.13 0 01.195-.011.106.106 0 01.031.079 9.7 9.7 0 01-.493 2.592 4.144 4.144 0 00-1.503-1.196 6.024 6.024 0 001.77-1.464zm-19.215-1.4c.429-4.427 3.945-8.08 8.361-8.685a9.676 9.676 0 014.248.355.142.142 0 01.094.137c0 .06-.034.114-.082.131a5.97 5.97 0 00-4.003 6.364c.283 2.478 2.11 4.505 4.478 5.108-.525.43-.947.986-1.21 1.633a3.37 3.37 0 00-4.689 2.17 3.36 3.36 0 00-1.244-.24c-1.09 0-2.059.522-2.676 1.327a9.764 9.764 0 01-3.277-8.3z"/></g></svg>