<svg xmlns="http://www.w3.org/2000/svg" width="32" height="20"><g fill="none" fill-rule="evenodd"><rect stroke="#FFCA00" x=".5" y=".5" width="31" height="19" rx="6"/><g fill-rule="nonzero"><path d="M22.712 15.986H9.257a.498.498 0 01-.499-.497v-2.54c0-.274.224-.497.5-.497H22.71a.5.5 0 01.5.498v2.539a.498.498 0 01-.5.497z" fill="#FFC733"/><path d="M22.712 12.452h-6.728v3.534h6.728a.498.498 0 00.499-.497v-2.54a.498.498 0 00-.5-.497z" fill="#FFAF00"/><path d="M23.094 5.151L19.66 9.065l-3.262-4.832a.5.5 0 00-.828 0l-3.26 4.832-3.435-3.914c-.32-.364-.92-.102-.872.378l.755 7.446v.472H23.21v-.472l.756-7.446c.049-.48-.553-.742-.872-.378z" fill="#FFE365"/><path d="M23.094 5.151L19.66 9.065l-3.262-4.832a.496.496 0 00-.414-.22v9.434h7.227v-.472l.755-7.446c.049-.48-.553-.742-.872-.378z" fill="#FFC733"/><path d="M15.984 11.63a1.62 1.62 0 01-1.62-1.615 1.62 1.62 0 013.24 0c0 .89-.727 1.614-1.62 1.614z" fill="#FF7976"/><path d="M17.604 10.015a1.62 1.62 0 00-1.62-1.615v3.23a1.62 1.62 0 001.62-1.615z" fill="#FF5752"/></g></g></svg>