<svg xmlns="http://www.w3.org/2000/svg" xmlns:xlink="http://www.w3.org/1999/xlink" width="21" height="20"><defs><filter x="-2.5%" y="-41.7%" width="105%" height="183.3%" filterUnits="objectBoundingBox" id="a"><feOffset dy="1" in="SourceAlpha" result="shadowOffsetInner1"/><feComposite in="shadowOffsetInner1" in2="SourceAlpha" operator="arithmetic" k2="-1" k3="1" result="shadowInnerInner1"/><feColorMatrix values="0 0 0 0 0.812154549 0 0 0 0 0.354426653 0 0 0 0 0.338910453 0 0 0 1 0" in="shadowInnerInner1"/></filter><path id="b" d="M8.554 10.333h20v1.2h-20z"/></defs><g fill="none" fill-rule="evenodd"><path d="M17.4 18.861V6.015h-.388a.388.388 0 110-.776h.388v-3.88a.776.776 0 00-.776-.776H13.21a.567.567 0 00-.485.263 2.71 2.71 0 01-4.615 0 .567.567 0 00-.484-.263H4.209a.776.776 0 00-.776.776v3.88h.388a.388.388 0 110 .776h-.388V18.86c0 .429.348.776.776.776h12.415a.776.776 0 00.776-.776zM5.373 6.015a.388.388 0 110-.776h.776a.388.388 0 110 .776h-.776zm2.328 0a.388.388 0 110-.776h.776a.388.388 0 110 .776H7.7zm2.328 0a.388.388 0 110-.776h.776a.388.388 0 110 .776h-.776zm2.327 0a.388.388 0 110-.776h.776a.388.388 0 110 .776h-.776zm2.328 0a.388.388 0 110-.776h.776a.388.388 0 110 .776h-.776z" fill="#F37D79" fill-rule="nonzero"/><path d="M5.25 18.966v-10.5c0-.138.14-.25.312-.25h9.376c.172 0 .312.112.312.25v10.5c0 .138-.14.25-.312.25H5.562c-.172 0-.312-.112-.312-.25z" fill="#FFF" fill-rule="nonzero" opacity=".25"/><path d="M12.777 12.339a4.613 4.613 0 01-4.613 4.613c-.75 0-1.455-.183-2.08-.5a4.613 4.613 0 009-1.422 4.609 4.609 0 00-2.533-4.113c.145.448.226.925.226 1.422z" fill="#FFF" fill-rule="nonzero"/><use filter="url(#a)" xlink:href="#b" transform="rotate(180 14.519 15.035)" fill="#000"/></g></svg>