<svg xmlns="http://www.w3.org/2000/svg" width="32" height="20"><g fill="none" fill-rule="evenodd"><rect stroke="#FFCA00" x=".5" y=".5" width="31" height="19" rx="6"/><path d="M6.909 6.524h2.028l1.014 3.952c.13.468.245.92.345 1.358.1.438.214.891.344 1.359h.052c.121-.468.234-.92.338-1.358a70.6 70.6 0 01.338-1.359l1.001-3.952h1.95L11.771 15H9.47L6.909 6.524zm8.32 0h1.911V15h-1.911V6.524zm3.913 0h3.094c.46 0 .89.045 1.293.136a2.9 2.9 0 011.053.455c.3.213.536.494.709.845.173.352.26.783.26 1.294 0 .494-.089.923-.266 1.287a2.495 2.495 0 01-.722.897 3.072 3.072 0 01-1.053.52 4.665 4.665 0 01-1.274.169h-1.183V15h-1.911V6.524zm2.977 4.082c1.04 0 1.56-.45 1.56-1.352 0-.442-.132-.754-.396-.936-.265-.182-.653-.273-1.164-.273h-1.066v2.561h1.066z" fill="#FFCA00"/></g></svg>